<svg width="78" height="57" viewBox="0 0 78 57" fill="none" xmlns="http://www.w3.org/2000/svg">
<path d="M44.0452 2.87268L37.3874 5.46539C33.2765 0.33822 23.9882 -1.49408 16.6313 1.37087C9.27439 4.23582 6.64526 10.7091 10.7561 15.8362L4.09831 18.429C0.436507 19.855 -0.885403 23.1097 1.16073 25.6616L23.4822 53.5015C25.5283 56.0535 30.1985 56.9747 33.8603 55.5487L73.8072 39.9925C77.469 38.5665 78.7909 35.3118 76.7448 32.7598L54.4233 4.91993C52.3772 2.36795 47.707 1.44668 44.0452 2.87268ZM24.8544 22.5235C25.8775 23.7995 25.2166 25.4268 23.3857 26.1398C21.5548 26.8528 19.2197 26.3922 18.1966 25.1162L14.4764 20.4762L21.1342 17.8835L24.8544 22.5235ZM20.3515 6.01085C24.0133 4.58485 28.6835 5.50612 30.7296 8.0581L17.414 13.2435C15.3678 10.6915 16.6897 7.43684 20.3515 6.01085ZM44.8279 14.7453C45.851 16.0213 45.19 17.6487 43.3591 18.3617C41.5282 19.0747 39.1932 18.614 38.1701 17.3381L34.4498 12.6981L41.1077 10.1054L44.8279 14.7453Z" fill="white" fill-opacity="0.13"/>
</svg>
